<svg width="18" height="47" viewBox="0 0 18 47" fill="none" xmlns="http://www.w3.org/2000/svg">
<path d="M0.884055 44.4842C0.816993 44.7521 0.979788 45.0236 1.24766 45.0907L5.61295 46.1835C5.88083 46.2505 6.15235 46.0877 6.21941 45.8199C6.28647 45.552 6.12368 45.2805 5.8558 45.2134L1.97554 44.242L2.94693 40.3618C3.01399 40.0939 2.8512 39.8224 2.58332 39.7553C2.31544 39.6882 2.04392 39.851 1.97686 40.1189L0.884055 44.4842ZM0.139573 1.94823C0.463472 1.96012 0.788745 1.98732 1.11476 2.0294L1.24277 1.03763C0.887263 0.991741 0.531516 0.961943 0.176264 0.948899L0.139573 1.94823ZM3.03592 2.44513C3.6559 2.63264 4.27369 2.87065 4.88467 3.156L5.30783 2.24995C4.65595 1.9455 3.99355 1.69003 3.32542 1.48795L3.03592 2.44513ZM6.62711 4.10954C7.18082 4.4581 7.72415 4.84489 8.25324 5.26708L8.87696 4.48543C8.31979 4.04084 7.74615 3.63234 7.15985 3.26326L6.62711 4.10954ZM9.75067 6.59443C10.2213 7.05608 10.6757 7.54665 11.1103 8.06361L11.8757 7.42003C11.4207 6.87894 10.9447 6.36486 10.4509 5.88051L9.75067 6.59443ZM12.3289 9.65745C12.7073 10.2025 13.0644 10.7695 13.3974 11.3562L14.2671 10.8627C13.9191 10.2496 13.5459 9.65699 13.1504 9.0872L12.3289 9.65745ZM14.3073 13.1427C14.5818 13.7479 14.8309 14.3693 15.052 15.0049L15.9965 14.6765C15.7653 14.0117 15.5049 13.362 15.218 12.7296L14.3073 13.1427ZM15.6223 16.9278C15.7812 17.5724 15.9111 18.2285 16.0095 18.8941L16.9987 18.7478C16.8956 18.0504 16.7596 17.3632 16.5932 16.6885L15.6223 16.9278ZM16.2066 20.8855C16.2397 21.5458 16.2413 22.2134 16.2091 22.8864L17.2079 22.9342C17.2417 22.2281 17.2401 21.5278 17.2053 20.8353L16.2066 20.8855ZM16.0152 24.8785C15.9192 25.5303 15.7905 26.1857 15.627 26.8432L16.5975 27.0845C16.7688 26.3952 16.9039 25.7079 17.0045 25.0241L16.0152 24.8785ZM15.0509 28.7632C14.8326 29.3827 14.582 30.0031 14.2974 30.6229L15.2063 31.0401C15.5035 30.3927 15.7655 29.7441 15.9941 29.0956L15.0509 28.7632ZM13.3804 32.4096C13.0563 32.9794 12.7019 33.5479 12.316 34.1141L13.1422 34.6774C13.5432 34.0892 13.912 33.4977 14.2497 32.904L13.3804 32.4096ZM11.1209 35.7311C10.7121 36.2433 10.2759 36.7528 9.81119 37.2588L10.5477 37.9352C11.0277 37.4125 11.479 36.8855 11.9025 36.3549L11.1209 35.7311ZM8.40105 38.6985C7.92616 39.154 7.42672 39.6059 6.90195 40.0538L7.5511 40.8144C8.09026 40.3543 8.60407 39.8894 9.09324 39.4202L8.40105 38.6985ZM5.32247 41.3297C4.79591 41.7328 4.24742 42.132 3.67641 42.5267L4.24507 43.3493C4.82906 42.9456 5.39063 42.5369 5.93033 42.1238L5.32247 41.3297ZM1.99467 43.635C1.70557 43.8167 1.41136 43.9973 1.11198 44.1768L1.6262 45.0345C1.93152 44.8514 2.2317 44.6671 2.5268 44.4816L1.99467 43.635Z" fill="#1AD079"/>
</svg>
