<svg width="17" height="45" viewBox="0 0 17 45" fill="none" xmlns="http://www.w3.org/2000/svg">
<path d="M16.5916 2.00565C16.6586 1.73777 16.4958 1.46625 16.228 1.39919L11.8627 0.306382C11.5948 0.239322 11.3233 0.402115 11.2562 0.669992C11.1891 0.937867 11.3519 1.20939 11.6198 1.27645L15.5001 2.24783L14.5287 6.12809C14.4616 6.39597 14.6244 6.66749 14.8923 6.73455C15.1602 6.80161 15.4317 6.63881 15.4988 6.37094L16.5916 2.00565ZM15.8035 44.0026C15.5196 43.8834 15.2322 43.7531 14.9423 43.6121L14.5048 44.5113C14.8106 44.6601 15.1148 44.798 15.4164 44.9246L15.8035 44.0026ZM13.2715 42.6961C12.7406 42.3727 12.2072 42.0171 11.6762 41.6315L11.0886 42.4406C11.6407 42.8416 12.1965 43.2122 12.7512 43.5501L13.2715 42.6961ZM10.1683 40.4485C9.68674 40.0417 9.2113 39.6112 8.74574 39.1586L8.04872 39.8757C8.53094 40.3444 9.02363 40.7906 9.523 41.2124L10.1683 40.4485ZM7.41379 37.7716C6.9901 37.2989 6.57895 36.8076 6.18357 36.2994L5.39428 36.9134C5.80419 37.4403 6.23024 37.9494 6.66911 38.439L7.41379 37.7716ZM5.06027 34.7436C4.7061 34.2134 4.37028 33.6685 4.05584 33.1102L3.18454 33.601C3.51182 34.1821 3.86097 34.7486 4.22877 35.2991L5.06027 34.7436ZM3.18402 31.4063C2.91746 30.8281 2.67488 30.2382 2.45915 29.6382L1.51812 29.9765C1.744 30.6048 1.99765 31.2214 2.27587 31.8249L3.18402 31.4063ZM1.89704 27.8149C1.73906 27.2012 1.61028 26.5787 1.51347 25.9487L0.525073 26.1006C0.627086 26.7644 0.762639 27.4194 0.928604 28.0642L1.89704 27.8149ZM1.32267 24.058C1.29261 23.4307 1.29554 22.7974 1.33405 22.1592L0.335867 22.099C0.295136 22.7739 0.292068 23.4433 0.323812 24.1059L1.32267 24.058ZM1.55188 20.2723C1.65712 19.6574 1.79691 19.0387 1.97359 18.4173L1.01171 18.1438C0.825207 18.7998 0.677486 19.4534 0.566208 20.1036L1.55188 20.2723ZM2.58899 16.6145C2.81882 16.039 3.08188 15.4617 3.38006 14.8833L2.49124 14.4251C2.17859 15.0315 1.90219 15.6379 1.6603 16.2437L2.58899 16.6145ZM4.32996 13.2276C4.66222 12.7027 5.02485 12.1775 5.4193 11.6526L4.61985 11.0518C4.20977 11.5976 3.83191 12.1448 3.48501 12.6928L4.32996 13.2276ZM6.62979 10.1591C7.03841 9.68986 7.47367 9.22133 7.93661 8.75394L7.22614 8.05022C6.74859 8.53235 6.29873 9.01654 5.87566 9.50236L6.62979 10.1591ZM9.32491 7.43163C9.78901 7.01375 10.2763 6.59716 10.7874 6.1822L10.1572 5.40582C9.63317 5.83121 9.13293 6.25886 8.65578 6.68849L9.32491 7.43163ZM12.3179 4.99808C12.8284 4.62124 13.3594 4.24606 13.9117 3.87278L13.3517 3.04429C12.7883 3.42509 12.2459 3.80826 11.724 4.19355L12.3179 4.99808ZM15.5185 2.82983C15.7955 2.65709 16.0771 2.48482 16.3636 2.31305L15.8494 1.45539C15.558 1.63014 15.2713 1.80546 14.9893 1.98135L15.5185 2.82983Z" fill="#1AD079"/>
</svg>
