<svg width="13" height="13" viewBox="0 0 13 13" fill="none" xmlns="http://www.w3.org/2000/svg">
<path d="M7.93965 0.282689C4.61928 -0.607002 1.17468 1.38174 0.284992 4.70211C-0.604699 8.02248 1.38404 11.4671 4.70441 12.3568C8.02478 13.2465 11.4694 11.2577 12.3591 7.93734C13.2488 4.61697 11.26 1.17238 7.93965 0.282689ZM5.02793 11.1494C2.3656 10.436 0.779029 7.68796 1.4924 5.02563C2.20577 2.3633 4.95379 0.776726 7.61612 1.4901C10.2785 2.20347 11.865 4.95149 11.1517 7.61382C10.4383 10.2762 7.69027 11.8627 5.02793 11.1494ZM7.43269 3.38209L6.52713 3.13944L5.55656 6.76167L8.17818 9.53468L8.87144 8.87927L6.59153 6.52135L7.43269 3.38209Z" fill="#FFA140"/>
</svg>
